<mxfile host="app.diagrams.net" modified="2023-06-21T05:47:52.382Z" agent="Mozilla/5.0 (Windows NT 10.0; Win64; x64) AppleWebKit/537.36 (KHTML, like Gecko) Chrome/114.0.0.0 Safari/537.36" version="21.3.4" etag="099GbU0PT2X3_jzECx9b" type="github">
  <diagram name="第 1 页" id="hDbU810oIX_wOkAGS4Tb">
    <mxGraphModel>
      <root>
        <mxCell id="0" />
        <mxCell id="1" parent="0" />
      </root>
    </mxGraphModel>
  </diagram>
</mxfile>
